<?xml version="1.0" encoding="UTF-8" standalone="no"?>
<!DOCTYPE svg PUBLIC "-//W3C//DTD SVG 1.1//EN"
 "http://www.w3.org/Graphics/SVG/1.1/DTD/svg11.dtd">
<!-- Generated by graphviz version 2.43.0 (0)
 -->
<!-- Title: %3 Pages: 1 -->
<svg width="1077pt" height="240pt"
 viewBox="0.00 0.00 1077.00 239.74" xmlns="http://www.w3.org/2000/svg" xmlns:xlink="http://www.w3.org/1999/xlink">
<g id="graph0" class="graph" transform="scale(1 1) rotate(0) translate(36 203.74)">
<title>%3</title>
<polygon fill="dimgray" stroke="transparent" points="-36,36 -36,-203.74 1041,-203.74 1041,36 -36,36"/>
<text text-anchor="middle" x="502.5" y="-152.54" font-family="Helvetica,sans-Serif" font-size="14.00">Sweep&#39;s Plan &amp; Progress</text>
<!-- start -->
<g id="node1" class="node">
<title>start</title>
</g>
<!-- ee7da7b6&#45;1c93&#45;456a&#45;842f&#45;eb041a49d6ea -->
<g id="node3" class="node">
<title>ee7da7b6&#45;1c93&#45;456a&#45;842f&#45;eb041a49d6ea</title>
<ellipse fill="#0ee832" stroke="black" cx="180.5" cy="-101.87" rx="127.97" ry="26.74"/>
<text text-anchor="middle" x="180.5" y="-105.67" font-family="Helvetica,sans-Serif" font-size="14.00">✓ Modify</text>
<text text-anchor="middle" x="180.5" y="-90.67" font-family="Helvetica,sans-Serif" font-size="14.00">python/internal_tags.py</text>
</g>
<!-- start&#45;&gt;ee7da7b6&#45;1c93&#45;456a&#45;842f&#45;eb041a49d6ea -->
<g id="edge6" class="edge">
<title>start&#45;&gt;ee7da7b6&#45;1c93&#45;456a&#45;842f&#45;eb041a49d6ea</title>
<path fill="none" stroke="black" d="M1.02,-101.87C4.09,-101.87 20.56,-101.87 42.39,-101.87"/>
<polygon fill="black" stroke="black" points="42.4,-105.37 52.4,-101.87 42.4,-98.37 42.4,-105.37"/>
<text text-anchor="middle" x="26.76" y="-108.67" font-family="Helvetica,sans-Serif" font-size="14.00">Start</text>
</g>
<!-- end -->
<g id="node2" class="node">
<title>end</title>
</g>
<!-- 26aa2bc0&#45;21c8&#45;4d69&#45;a367&#45;07c1568664d7 -->
<g id="node4" class="node">
<title>26aa2bc0&#45;21c8&#45;4d69&#45;a367&#45;07c1568664d7</title>
<ellipse fill="#ee0000" stroke="black" cx="475.5" cy="-101.87" rx="131.54" ry="26.74"/>
<text text-anchor="middle" x="475.5" y="-105.67" font-family="Helvetica,sans-Serif" font-size="14.00">✗ Modify</text>
<text text-anchor="middle" x="475.5" y="-90.67" font-family="Helvetica,sans-Serif" font-size="14.00">javascript/internal_tag.js</text>
</g>
<!-- ee7da7b6&#45;1c93&#45;456a&#45;842f&#45;eb041a49d6ea&#45;&gt;26aa2bc0&#45;21c8&#45;4d69&#45;a367&#45;07c1568664d7 -->
<g id="edge2" class="edge">
<title>ee7da7b6&#45;1c93&#45;456a&#45;842f&#45;eb041a49d6ea&#45;&gt;26aa2bc0&#45;21c8&#45;4d69&#45;a367&#45;07c1568664d7</title>
<path fill="none" stroke="black" d="M308.7,-101.87C317.04,-101.87 325.37,-101.87 333.71,-101.87"/>
<polygon fill="black" stroke="black" points="333.88,-105.37 343.88,-101.87 333.88,-98.37 333.88,-105.37"/>
</g>
<!-- a88aa16a&#45;1093&#45;4f63&#45;96ea&#45;f5267c892952 -->
<g id="node6" class="node">
<title>a88aa16a&#45;1093&#45;4f63&#45;96ea&#45;f5267c892952</title>
<polygon fill="#ee0000" stroke="black" points="271,-38 90,-38 90,0 271,0 271,-38"/>
<text text-anchor="middle" x="180.5" y="-22.8" font-family="Helvetica,sans-Serif" font-size="14.00">✗ Check</text>
<text text-anchor="middle" x="180.5" y="-7.8" font-family="Helvetica,sans-Serif" font-size="14.00">python/internal_tags.py</text>
</g>
<!-- ee7da7b6&#45;1c93&#45;456a&#45;842f&#45;eb041a49d6ea&#45;&gt;a88aa16a&#45;1093&#45;4f63&#45;96ea&#45;f5267c892952 -->
<g id="edge1" class="edge">
<title>ee7da7b6&#45;1c93&#45;456a&#45;842f&#45;eb041a49d6ea&#45;&gt;a88aa16a&#45;1093&#45;4f63&#45;96ea&#45;f5267c892952</title>
<path fill="none" stroke="black" stroke-dasharray="5,2" d="M180.5,-74.84C180.5,-66.3 180.5,-56.78 180.5,-48.1"/>
<polygon fill="black" stroke="black" points="184,-48.05 180.5,-38.05 177,-48.05 184,-48.05"/>
</g>
<!-- 35f3abc3&#45;a7e3&#45;4f67&#45;89a0&#45;3a160d5e6bb0 -->
<g id="node5" class="node">
<title>35f3abc3&#45;a7e3&#45;4f67&#45;89a0&#45;3a160d5e6bb0</title>
<ellipse fill="#0ee832" stroke="black" cx="794.5" cy="-101.87" rx="152.06" ry="26.74"/>
<text text-anchor="middle" x="794.5" y="-105.67" font-family="Helvetica,sans-Serif" font-size="14.00">✓ Create</text>
<text text-anchor="middle" x="794.5" y="-90.67" font-family="Helvetica,sans-Serif" font-size="14.00">typescript/src/internal_tag.ts</text>
</g>
<!-- 26aa2bc0&#45;21c8&#45;4d69&#45;a367&#45;07c1568664d7&#45;&gt;35f3abc3&#45;a7e3&#45;4f67&#45;89a0&#45;3a160d5e6bb0 -->
<g id="edge4" class="edge">
<title>26aa2bc0&#45;21c8&#45;4d69&#45;a367&#45;07c1568664d7&#45;&gt;35f3abc3&#45;a7e3&#45;4f67&#45;89a0&#45;3a160d5e6bb0</title>
<path fill="none" stroke="black" d="M607.27,-101.87C615.59,-101.87 623.91,-101.87 632.23,-101.87"/>
<polygon fill="black" stroke="black" points="632.38,-105.37 642.38,-101.87 632.38,-98.37 632.38,-105.37"/>
</g>
<!-- 45a2de1b&#45;3715&#45;46cd&#45;817c&#45;d9cd38452dd4 -->
<g id="node7" class="node">
<title>45a2de1b&#45;3715&#45;46cd&#45;817c&#45;d9cd38452dd4</title>
<polygon fill="#ee0000" stroke="black" points="568.5,-38 382.5,-38 382.5,0 568.5,0 568.5,-38"/>
<text text-anchor="middle" x="475.5" y="-22.8" font-family="Helvetica,sans-Serif" font-size="14.00">✗ Check</text>
<text text-anchor="middle" x="475.5" y="-7.8" font-family="Helvetica,sans-Serif" font-size="14.00">javascript/internal_tag.js</text>
</g>
<!-- 26aa2bc0&#45;21c8&#45;4d69&#45;a367&#45;07c1568664d7&#45;&gt;45a2de1b&#45;3715&#45;46cd&#45;817c&#45;d9cd38452dd4 -->
<g id="edge3" class="edge">
<title>26aa2bc0&#45;21c8&#45;4d69&#45;a367&#45;07c1568664d7&#45;&gt;45a2de1b&#45;3715&#45;46cd&#45;817c&#45;d9cd38452dd4</title>
<path fill="none" stroke="black" stroke-dasharray="5,2" d="M475.5,-74.84C475.5,-66.3 475.5,-56.78 475.5,-48.1"/>
<polygon fill="black" stroke="black" points="479,-48.05 475.5,-38.05 472,-48.05 479,-48.05"/>
</g>
<!-- 35f3abc3&#45;a7e3&#45;4f67&#45;89a0&#45;3a160d5e6bb0&#45;&gt;end -->
<g id="edge7" class="edge">
<title>35f3abc3&#45;a7e3&#45;4f67&#45;89a0&#45;3a160d5e6bb0&#45;&gt;end</title>
<path fill="none" stroke="black" d="M946.56,-101.87C966.33,-101.87 983.28,-101.87 993.66,-101.87"/>
<polygon fill="black" stroke="black" points="993.85,-105.37 1003.85,-101.87 993.85,-98.37 993.85,-105.37"/>
<text text-anchor="middle" x="975.26" y="-108.67" font-family="Helvetica,sans-Serif" font-size="14.00">Finish</text>
</g>
<!-- a23bd760&#45;5c95&#45;4ffe&#45;9194&#45;52c46211f261 -->
<g id="node8" class="node">
<title>a23bd760&#45;5c95&#45;4ffe&#45;9194&#45;52c46211f261</title>
<polygon fill="#ee0000" stroke="black" points="902,-38 687,-38 687,0 902,0 902,-38"/>
<text text-anchor="middle" x="794.5" y="-22.8" font-family="Helvetica,sans-Serif" font-size="14.00">✗ Check</text>
<text text-anchor="middle" x="794.5" y="-7.8" font-family="Helvetica,sans-Serif" font-size="14.00">typescript/src/internal_tag.ts</text>
</g>
<!-- 35f3abc3&#45;a7e3&#45;4f67&#45;89a0&#45;3a160d5e6bb0&#45;&gt;a23bd760&#45;5c95&#45;4ffe&#45;9194&#45;52c46211f261 -->
<g id="edge5" class="edge">
<title>35f3abc3&#45;a7e3&#45;4f67&#45;89a0&#45;3a160d5e6bb0&#45;&gt;a23bd760&#45;5c95&#45;4ffe&#45;9194&#45;52c46211f261</title>
<path fill="none" stroke="black" stroke-dasharray="5,2" d="M794.5,-74.84C794.5,-66.3 794.5,-56.78 794.5,-48.1"/>
<polygon fill="black" stroke="black" points="798,-48.05 794.5,-38.05 791,-48.05 798,-48.05"/>
</g>
</g>
</svg>
