<?xml version="1.0" encoding="UTF-8" standalone="no"?>
<!DOCTYPE svg PUBLIC "-//W3C//DTD SVG 1.1//EN"
 "http://www.w3.org/Graphics/SVG/1.1/DTD/svg11.dtd">
<!-- Generated by graphviz version 2.43.0 (0)
 -->
<!-- Title: %3 Pages: 1 -->
<svg width="1155pt" height="240pt"
 viewBox="0.00 0.00 1155.00 239.74" xmlns="http://www.w3.org/2000/svg" xmlns:xlink="http://www.w3.org/1999/xlink">
<g id="graph0" class="graph" transform="scale(1 1) rotate(0) translate(36 203.74)">
<title>%3</title>
<polygon fill="dimgray" stroke="transparent" points="-36,36 -36,-203.74 1119,-203.74 1119,36 -36,36"/>
<text text-anchor="middle" x="541.5" y="-152.54" font-family="Helvetica,sans-Serif" font-size="14.00">Sweep&#39;s Plan &amp; Progress</text>
<!-- start -->
<g id="node1" class="node">
<title>start</title>
</g>
<!-- 51a28a81&#45;7d54&#45;48c5&#45;af0c&#45;5fee931e30f5 -->
<g id="node3" class="node">
<title>51a28a81&#45;7d54&#45;48c5&#45;af0c&#45;5fee931e30f5</title>
<ellipse fill="#0ee832" stroke="black" cx="180.5" cy="-101.87" rx="127.97" ry="26.74"/>
<text text-anchor="middle" x="180.5" y="-105.67" font-family="Helvetica,sans-Serif" font-size="14.00">✓ Modify</text>
<text text-anchor="middle" x="180.5" y="-90.67" font-family="Helvetica,sans-Serif" font-size="14.00">python/internal_tags.py</text>
</g>
<!-- start&#45;&gt;51a28a81&#45;7d54&#45;48c5&#45;af0c&#45;5fee931e30f5 -->
<g id="edge6" class="edge">
<title>start&#45;&gt;51a28a81&#45;7d54&#45;48c5&#45;af0c&#45;5fee931e30f5</title>
<path fill="none" stroke="black" d="M1.02,-101.87C4.09,-101.87 20.56,-101.87 42.39,-101.87"/>
<polygon fill="black" stroke="black" points="42.4,-105.37 52.4,-101.87 42.4,-98.37 42.4,-105.37"/>
<text text-anchor="middle" x="26.76" y="-108.67" font-family="Helvetica,sans-Serif" font-size="14.00">Start</text>
</g>
<!-- end -->
<g id="node2" class="node">
<title>end</title>
</g>
<!-- e6855934&#45;7978&#45;4f47&#45;bd10&#45;e56c7d5b89b3 -->
<g id="node4" class="node">
<title>e6855934&#45;7978&#45;4f47&#45;bd10&#45;e56c7d5b89b3</title>
<ellipse fill="#ee0000" stroke="black" cx="475.5" cy="-101.87" rx="131.54" ry="26.74"/>
<text text-anchor="middle" x="475.5" y="-105.67" font-family="Helvetica,sans-Serif" font-size="14.00">✗ Modify</text>
<text text-anchor="middle" x="475.5" y="-90.67" font-family="Helvetica,sans-Serif" font-size="14.00">javascript/internal_tag.js</text>
</g>
<!-- 51a28a81&#45;7d54&#45;48c5&#45;af0c&#45;5fee931e30f5&#45;&gt;e6855934&#45;7978&#45;4f47&#45;bd10&#45;e56c7d5b89b3 -->
<g id="edge2" class="edge">
<title>51a28a81&#45;7d54&#45;48c5&#45;af0c&#45;5fee931e30f5&#45;&gt;e6855934&#45;7978&#45;4f47&#45;bd10&#45;e56c7d5b89b3</title>
<path fill="none" stroke="black" d="M308.7,-101.87C317.04,-101.87 325.37,-101.87 333.71,-101.87"/>
<polygon fill="black" stroke="black" points="333.88,-105.37 343.88,-101.87 333.88,-98.37 333.88,-105.37"/>
</g>
<!-- bb457b8f&#45;b27c&#45;4a9b&#45;b4ec&#45;c96b2125070c -->
<g id="node6" class="node">
<title>bb457b8f&#45;b27c&#45;4a9b&#45;b4ec&#45;c96b2125070c</title>
<polygon fill="#ee0000" stroke="black" points="271,-38 90,-38 90,0 271,0 271,-38"/>
<text text-anchor="middle" x="180.5" y="-22.8" font-family="Helvetica,sans-Serif" font-size="14.00">✗ Check</text>
<text text-anchor="middle" x="180.5" y="-7.8" font-family="Helvetica,sans-Serif" font-size="14.00">python/internal_tags.py</text>
</g>
<!-- 51a28a81&#45;7d54&#45;48c5&#45;af0c&#45;5fee931e30f5&#45;&gt;bb457b8f&#45;b27c&#45;4a9b&#45;b4ec&#45;c96b2125070c -->
<g id="edge1" class="edge">
<title>51a28a81&#45;7d54&#45;48c5&#45;af0c&#45;5fee931e30f5&#45;&gt;bb457b8f&#45;b27c&#45;4a9b&#45;b4ec&#45;c96b2125070c</title>
<path fill="none" stroke="black" stroke-dasharray="5,2" d="M180.5,-74.84C180.5,-66.3 180.5,-56.78 180.5,-48.1"/>
<polygon fill="black" stroke="black" points="184,-48.05 180.5,-38.05 177,-48.05 184,-48.05"/>
</g>
<!-- d4ae6a25&#45;516f&#45;4304&#45;9fe1&#45;7af6139c9899 -->
<g id="node5" class="node">
<title>d4ae6a25&#45;516f&#45;4304&#45;9fe1&#45;7af6139c9899</title>
<ellipse fill="#0ee832" stroke="black" cx="833.5" cy="-101.87" rx="190.84" ry="26.74"/>
<text text-anchor="middle" x="833.5" y="-105.67" font-family="Helvetica,sans-Serif" font-size="14.00">✓ Modify</text>
<text text-anchor="middle" x="833.5" y="-90.67" font-family="Helvetica,sans-Serif" font-size="14.00">typescript/src/entities/internal_tag.ts</text>
</g>
<!-- e6855934&#45;7978&#45;4f47&#45;bd10&#45;e56c7d5b89b3&#45;&gt;d4ae6a25&#45;516f&#45;4304&#45;9fe1&#45;7af6139c9899 -->
<g id="edge4" class="edge">
<title>e6855934&#45;7978&#45;4f47&#45;bd10&#45;e56c7d5b89b3&#45;&gt;d4ae6a25&#45;516f&#45;4304&#45;9fe1&#45;7af6139c9899</title>
<path fill="none" stroke="black" d="M607.3,-101.87C615.57,-101.87 623.84,-101.87 632.12,-101.87"/>
<polygon fill="black" stroke="black" points="632.2,-105.37 642.2,-101.87 632.2,-98.37 632.2,-105.37"/>
</g>
<!-- 75912e0b&#45;72db&#45;4551&#45;8055&#45;0d1d73d6ba64 -->
<g id="node7" class="node">
<title>75912e0b&#45;72db&#45;4551&#45;8055&#45;0d1d73d6ba64</title>
<polygon fill="#ee0000" stroke="black" points="568.5,-38 382.5,-38 382.5,0 568.5,0 568.5,-38"/>
<text text-anchor="middle" x="475.5" y="-22.8" font-family="Helvetica,sans-Serif" font-size="14.00">✗ Check</text>
<text text-anchor="middle" x="475.5" y="-7.8" font-family="Helvetica,sans-Serif" font-size="14.00">javascript/internal_tag.js</text>
</g>
<!-- e6855934&#45;7978&#45;4f47&#45;bd10&#45;e56c7d5b89b3&#45;&gt;75912e0b&#45;72db&#45;4551&#45;8055&#45;0d1d73d6ba64 -->
<g id="edge3" class="edge">
<title>e6855934&#45;7978&#45;4f47&#45;bd10&#45;e56c7d5b89b3&#45;&gt;75912e0b&#45;72db&#45;4551&#45;8055&#45;0d1d73d6ba64</title>
<path fill="none" stroke="black" stroke-dasharray="5,2" d="M475.5,-74.84C475.5,-66.3 475.5,-56.78 475.5,-48.1"/>
<polygon fill="black" stroke="black" points="479,-48.05 475.5,-38.05 472,-48.05 479,-48.05"/>
</g>
<!-- d4ae6a25&#45;516f&#45;4304&#45;9fe1&#45;7af6139c9899&#45;&gt;end -->
<g id="edge7" class="edge">
<title>d4ae6a25&#45;516f&#45;4304&#45;9fe1&#45;7af6139c9899&#45;&gt;end</title>
<path fill="none" stroke="black" d="M1024.43,-101.87C1044.65,-101.87 1061.57,-101.87 1071.83,-101.87"/>
<polygon fill="black" stroke="black" points="1071.87,-105.37 1081.87,-101.87 1071.87,-98.37 1071.87,-105.37"/>
<text text-anchor="middle" x="1053.21" y="-108.67" font-family="Helvetica,sans-Serif" font-size="14.00">Finish</text>
</g>
<!-- 5ba492ba&#45;908c&#45;4051&#45;9f1e&#45;9415fc33a554 -->
<g id="node8" class="node">
<title>5ba492ba&#45;908c&#45;4051&#45;9f1e&#45;9415fc33a554</title>
<polygon fill="#ee0000" stroke="black" points="968.5,-38 698.5,-38 698.5,0 968.5,0 968.5,-38"/>
<text text-anchor="middle" x="833.5" y="-22.8" font-family="Helvetica,sans-Serif" font-size="14.00">✗ Check</text>
<text text-anchor="middle" x="833.5" y="-7.8" font-family="Helvetica,sans-Serif" font-size="14.00">typescript/src/entities/internal_tag.ts</text>
</g>
<!-- d4ae6a25&#45;516f&#45;4304&#45;9fe1&#45;7af6139c9899&#45;&gt;5ba492ba&#45;908c&#45;4051&#45;9f1e&#45;9415fc33a554 -->
<g id="edge5" class="edge">
<title>d4ae6a25&#45;516f&#45;4304&#45;9fe1&#45;7af6139c9899&#45;&gt;5ba492ba&#45;908c&#45;4051&#45;9f1e&#45;9415fc33a554</title>
<path fill="none" stroke="black" stroke-dasharray="5,2" d="M833.5,-74.84C833.5,-66.3 833.5,-56.78 833.5,-48.1"/>
<polygon fill="black" stroke="black" points="837,-48.05 833.5,-38.05 830,-48.05 837,-48.05"/>
</g>
</g>
</svg>
