<svg id="Layer_1" data-name="Layer 1" xmlns="http://www.w3.org/2000/svg" viewBox="0 0 809.01 154.49"><defs><style>.cls-1{fill:#fff;}</style></defs><title>White Fill</title><path class="cls-1" d="M784.93,49A29.07,29.07,0,0,1,809,61.76V24.17a24,24,0,1,0-48.09,0V61.73A29.07,29.07,0,0,1,784.93,49Z"/><path class="cls-1" d="M809,77.15a24.07,24.07,0,0,0-48.09-.52c0,.48,0,1,0,1.44v52.23a24.08,24.08,0,0,0,48.16,0V78.08C809,77.77,809,77.46,809,77.15Z"/><path class="cls-1" d="M0,40.41v89.94a24,24,0,1,0,48.09,0V109.72L.21,40.72Z"/><path class="cls-1" d="M64.74,40.72c-.37-.54-.72-1.09-1.05-1.64L53.07,23.78l-5.66-8.16-3.63-5.23A24,24,0,0,0,.67,18.61c-.1.43-.22.85-.29,1.28A24.31,24.31,0,0,0,0,24.13c0,.15,0,.3,0,.45v0A23.88,23.88,0,0,0,4.31,37.86L48.09,101l2.5,3.6,2.5,3.6,25,36a24,24,0,0,0,40.43-26Z"/><path class="cls-1" d="M108.32,10.39a24,24,0,0,0-40.43,26c.3.51.62,1,1,1.5l53.86,77.62,19.91,28.69a24,24,0,0,0,39.47-27.48Z"/><path class="cls-1" d="M293.87,77.2a24.07,24.07,0,0,0-24-24h0l-10.45,0v48.09l10.47,0A24.07,24.07,0,0,0,293.87,77.2Z"/><path class="cls-1" d="M286.13,0h0L246.49.06a29,29,0,0,1,12.86,24.11v24l26.78,0a24,24,0,0,0,0-48.09Z"/><path class="cls-1" d="M286.13,106.34h0l-26.75,0v24a29,29,0,0,1-12.92,24.14l39.7-.06a24,24,0,0,0,0-48.09Z"/><path class="cls-1" d="M254.36,130.35V24.17a24.07,24.07,0,0,0-24-24h0a24.07,24.07,0,0,0-24,24V130.35a24.07,24.07,0,0,0,24,24h0A24.07,24.07,0,0,0,254.36,130.35Z"/><path class="cls-1" d="M420.85,68.16a37.62,37.62,0,0,1-12.53,2.14l-18.25,0v37.82l25,36a24,24,0,0,0,39.47-27.48Z"/><path class="cls-1" d="M390.07,65.34l18.25,0a32.71,32.71,0,0,0,9.56-1.42c.83-.25,1.64-.55,2.44-.86s1.57-.66,2.33-1A32.6,32.6,0,0,0,408.3.12h0L377.39.19a29.29,29.29,0,0,1,6.91,6.63,28.92,28.92,0,0,1,5.75,17c0,.13,0,.25,0,.38Z"/><path class="cls-1" d="M377,6.21a24.18,24.18,0,0,0-3.1-2.34A23.88,23.88,0,0,0,363.19.22c-.71-.06-1.43-.1-2.16-.1h0a24.07,24.07,0,0,0-24,24V130.35a24,24,0,1,0,48.09,0V24.17A23.91,23.91,0,0,0,380.42,10,24.24,24.24,0,0,0,377,6.21Z"/><path class="cls-1" d="M704.22.12a24.07,24.07,0,0,0-24,24V48.84a29,29,0,0,1,0,56.76v24.75a24,24,0,1,0,48.09,0V24.17A24.07,24.07,0,0,0,704.22.12Z"/><path class="cls-1" d="M691,94.21a24,24,0,0,0-13.33-40.75,24.25,24.25,0,0,0-2.5-.25l-1.19,0h0l-23.39.05v48.09l23.42-.05,1.18,0a24.27,24.27,0,0,0,2.5-.25A24,24,0,0,0,691,94.21Z"/><path class="cls-1" d="M621.53.12a24.07,24.07,0,0,0-24,24V130.35a24,24,0,0,0,48.09,0V24.17A24.07,24.07,0,0,0,621.53.12Z"/><path class="cls-1" d="M547.82.14a77.25,77.25,0,0,0-74.63,57.69,29,29,0,0,1,48.05,7.66,29.11,29.11,0,0,1,26.58-17.31,24,24,0,0,0,0-48Z"/><path class="cls-1" d="M547.82,106.33a29.09,29.09,0,0,1-29.08-29.08,24,24,0,0,0-48-1.23c0,.41,0,.82,0,1.23a77.19,77.19,0,0,0,1.21,13.53c.35,2,.77,4,1.27,5.89a77.25,77.25,0,0,0,74.63,57.69,24,24,0,0,0,0-48Z"/></svg>